<?xml version="1.0" encoding="utf-8"?>
<!-- Generator: Adobe Illustrator 18.1.1, SVG Export Plug-In . SVG Version: 6.00 Build 0)  -->
<svg version="1.1" id="Layer_2" xmlns="http://www.w3.org/2000/svg" xmlns:xlink="http://www.w3.org/1999/xlink" x="0px" y="0px"
	 width="60px" height="60px" viewBox="0 0 60 60" enable-background="new 0 0 60 60" xml:space="preserve">
<path fill-rule="evenodd" clip-rule="evenodd" d="M55.499,4C55.5,4.923,55.165,5.97,54.93,6.76
	c-0.409,1.383-0.536,2.666-1.024,3.946c-0.415,1.089-1.021,2.193-1.365,3.268c0.474,0,0.948,0,1.422,0
	c0.058-0.045,0.016-0.019,0.114-0.056c0,0.075,0,0.15,0,0.225c-0.198,0.334-0.06,0.822-0.17,1.239
	c-0.219,0.828-0.381,1.69-0.683,2.48c-0.435,1.139-0.903,2.322-1.479,3.381c-0.318,0.584-0.834,1.183-1.024,1.859
	c0.493,0.057,0.986,0.113,1.479,0.169c-0.013,0.682-0.348,1.348-0.569,1.86c-0.683,1.58-1.423,2.938-2.332,4.283
	c-0.338,0.499-0.983,1.002-1.195,1.578c0.488,0.144,0.925,0.507,1.365,0.733c-0.297,0.549-0.49,1.142-0.796,1.69
	c-0.626,1.122-1.622,2.038-2.389,3.043c-0.625,0.62-1.251,1.24-1.877,1.86c-0.183,0.161-0.397,0.217-0.512,0.45
	c0.019,0,0.038,0,0.057,0c0.33,0.303,0.9,0.53,1.308,0.733c-1.02,1.565-2.327,2.903-3.925,3.888c-0.615,0.38-1.295,0.69-1.934,1.014
	c-0.285,0.145-0.65,0.102-0.739,0.451c0.338,0.263,0.46,0.755,0.796,1.015c-0.019,0.018-0.038,0.037-0.057,0.056
	c-0.394,0.555-1.128,0.859-1.763,1.183c-1.43,0.732-3.438,1.411-5.347,1.578c0.044,0.588,0.46,0.922,0.569,1.465
	c-0.569,0.188-1.138,0.375-1.706,0.564c-0.501,0.12-1.26,0.095-1.707,0c-0.284,0-0.569,0-0.853,0
	c-0.421-0.098-0.948-0.097-1.422-0.226c-0.864-0.235-1.879-0.59-2.787-0.677c0.019,0.545,0.038,1.09,0.057,1.634
	c-0.091,0.031-0.137,0.045-0.284,0.056c-0.309-0.199-0.79-0.117-1.195-0.225c-0.705-0.19-1.463-0.308-2.162-0.564
	c-1.766-0.649-3.346-1.503-4.778-2.48c-0.585-0.399-1.036-0.994-1.593-1.409c-0.133-0.099-0.544-0.474-0.626-0.394
	c-0.59,0.404-1.207,1.437-1.65,2.028c-1.032,1.383-2.281,2.659-3.299,4.058c-0.448,0.617-0.93,1.202-1.365,1.803
	c-0.2,0.276-0.195,0.619-0.625,0.677c-0.318-0.428-1.159-0.566-1.365-1.071c0.019,0,0.038,0,0.057,0
	c0.24-0.745,1.042-1.372,1.479-1.972c1.153-1.585,2.36-3.059,3.527-4.621c0.39-0.522,1.795-1.803,1.877-2.424
	c-0.647-0.444-1.295-1.537-1.763-2.197c-1.481-2.089-2.861-4.703-3.129-7.946c0.55,0.018,1.1,0.037,1.65,0.056
	c-0.015-0.857-0.365-1.68-0.569-2.423c-0.205-0.743-0.106-1.414-0.284-2.198c-0.092-0.403-0.171-1.312-0.057-1.803
	c0.165-0.709,0.373-1.358,0.626-1.972c0.54,0.114,0.933,0.457,1.422,0.62c0-0.037,0-0.076,0-0.112
	c0.295-0.412,0.285-1.477,0.455-2.029c0.413-1.344,0.782-2.723,1.479-3.776c0.248-0.374,0.522-1.087,1.024-1.184
	c0.253,0.264,0.774,0.671,1.138,0.788c0.09-0.639,0.528-1.2,0.796-1.69c0.949-1.733,1.968-3.215,3.583-4.283
	c0.272-0.181,0.508-0.455,0.853-0.564c0,0.019,0,0.038,0,0.057c0.327,0.276,0.403,1.059,0.853,1.183
	c0.316-0.49,0.789-0.838,1.195-1.24c1.063-1.053,2.109-1.99,3.356-2.874c0.657-0.466,1.527-1.204,2.503-1.296
	c0.069,0.296,0.55,1.199,0.853,1.24c0.35-0.502,1.018-0.786,1.536-1.127c1.203-0.792,2.477-1.654,3.868-2.253
	c0.259-0.112,2.077-0.68,2.162-0.62c0.21,0.339,0.006,1.006,0.228,1.352c0.067,0.045,0.095,0.043,0.227,0.056
	c0.409-0.477,1.55-0.811,2.162-1.127c1.889-0.977,4.167-2.012,6.826-2.141c0.034,0.097,0.051,0.178,0.057,0.338
	c-0.105,0.155-0.098,0.998-0.057,1.071c0.067,0.046,0.095,0.044,0.228,0.057c0.401-0.441,1.535-0.646,2.161-0.902
	c1.32-0.54,2.87-0.918,4.323-1.352c0.488-0.146,0.858-0.085,1.365-0.225C54.103,4.231,54.803,4.055,55.499,4z M43.44,7.662
	c-1.017,0.057-2.068,0.634-2.844,1.015c-1.562,0.768-3.017,1.378-4.437,2.255c-0.534,0.329-1.056,0.878-1.706,1.07
	c0-0.62,0-1.24,0-1.86c-0.05-0.075-0.083-0.306-0.114-0.394c-0.733,0.183-1.402,0.709-1.991,1.071
	c-1.596,0.98-3.65,2.146-4.608,3.719c-0.019-0.018-0.038-0.038-0.057-0.056c-0.296-0.394-0.666-1.903-1.138-1.972
	c-0.555,0.56-1.356,0.993-1.991,1.465c-0.646,0.481-1.611,1.494-2.105,2.142c-0.208,0.188-0.417,0.375-0.626,0.564
	c-0.576,0.759-1.327,1.509-1.763,2.367c-0.019-0.019-0.038-0.037-0.057-0.056c-0.328-0.367-0.71-1.872-1.138-1.972
	c-0.098,0.286-0.351,0.354-0.512,0.564c-0.363,0.476-0.762,0.965-1.081,1.465c-0.904,1.417-1.567,3.227-1.991,5.072
	c-0.019,0-0.038,0-0.057,0c0-0.018,0-0.038,0-0.057c-0.505-0.334-1.099-1.292-1.707-1.409c-0.62,1.43-0.94,3.116-1.365,4.791
	c-0.213,0.841-0.06,1.771-0.341,2.536c-0.517-0.24-1.027-0.715-1.65-0.79c-0.041,0.116-0.056,0.264-0.057,0.451
	c0.262,0.435,0.092,1.228,0.228,1.747c0.301,1.152,0.587,2.385,0.91,3.494c0.078,0.27,0.322,1.742,0.284,1.803
	c-0.33,0.211-1.148,0.12-1.65,0.113c0.025,0.427,0.221,0.75,0.341,1.07c0.644,1.723,1.298,2.841,2.275,4.171
	c0.249,0.339,0.898,1.383,1.308,1.465c0.087-0.243,0.265-0.275,0.398-0.45c0.539-0.711,1.178-1.334,1.707-2.029
	c1.704-2.238,3.708-4.231,5.574-6.312c3.423-3.815,6.896-7.602,10.694-11.045c1.638-1.484,3.104-3.171,4.892-4.508
	c0.467-0.349,0.841-0.89,1.308-1.239c1.826-1.367,3.487-2.958,5.347-4.284c0.685-0.488,1.361-1.009,2.048-1.465
	c0.399-0.264,0.871-0.451,1.195-0.789c0.1,0.035,0.055,0.011,0.114,0.057c0.231,0.175,0.998,1.443,0.967,1.465
	c-0.497,0.492-1.183,0.772-1.763,1.184c-1.093,0.775-2.152,1.624-3.242,2.423c-0.732,0.537-1.38,1.262-2.105,1.804
	c-2.977,2.224-5.58,4.897-8.305,7.383c-0.727,0.663-1.378,1.42-2.048,2.141c-0.7,0.753-1.531,1.371-2.162,2.198
	c-0.379,0.357-0.758,0.714-1.137,1.071c-0.837,0.86-1.717,1.749-2.446,2.705c-0.195,0.255-0.524,0.437-0.74,0.677
	c-1.112,1.239-2.289,2.448-3.299,3.775c-0.353,0.464-0.899,0.834-1.251,1.296c-0.846,1.11-1.898,2.059-2.73,3.157
	c-0.549,0.724-1.099,1.527-1.763,2.141c0.036,0.099,0.011,0.055,0.057,0.113c0.281,0.399,0.802,0.72,1.195,1.014
	c0.446,0.333,0.844,0.803,1.308,1.126c1.004,0.7,2.115,1.173,3.356,1.635c0.442,0.165,0.81,0.377,1.422,0.394
	c-0.008-0.504-0.081-1.231,0.057-1.634c2.634,0.454,4.702,1.375,7.679,1.409c0-0.037,0-0.075,0-0.113
	c-0.267-0.28-0.739-1.178-0.853-1.578c0.519,0,1.148-0.12,1.593-0.226c0.455-0.108,0.75,0.001,1.195-0.112
	c1.036-0.265,2.174-0.473,3.128-0.789c0.471-0.157,1.359-0.243,1.536-0.676c-0.334-0.215-1.348-1.213-1.479-1.578
	c0.019-0.019,0.038-0.038,0.057-0.057c0.464-0.045,0.924-0.255,1.308-0.394c0.453-0.164,0.811-0.171,1.251-0.338
	c1.045-0.397,2.033-1.002,2.901-1.578c0.499-0.332,1.388-0.762,1.593-1.353c-0.683-0.319-1.366-0.638-2.048-0.958
	c0-0.019,0-0.038,0-0.057c0.382-0.222,0.68-0.544,1.024-0.788c1.606-1.144,3.082-2.442,4.266-4.001
	c0.394-0.519,1.233-1.084,1.308-1.86c-0.354-0.082-1.863-0.727-2.048-0.958c1.673-1.108,2.738-2.963,3.811-4.677
	c0.342-0.547,0.904-1.194,1.024-1.916c-0.758-0.019-1.517-0.038-2.275-0.057c0.107-0.646,1.248-1.927,1.593-2.536
	c0.776-1.372,1.396-2.702,2.048-4.225c0.266-0.623,0.636-1.322,0.739-2.086c-0.038-0.038-0.076-0.075-0.114-0.113
	c-0.721,0.133-1.714,0.155-2.503,0.169c0-0.037,0-0.075,0-0.112c0.582-0.594,0.862-1.47,1.308-2.198
	c0.942-1.535,1.421-3.29,2.048-5.184c0.217-0.656,0.504-1.426,0.569-2.198c-0.954,0.04-1.999,0.444-2.787,0.733
	c-0.465,0.17-0.854,0.167-1.308,0.338c-1.235,0.465-2.517,0.961-3.64,1.578c-0.662,0.364-1.296,0.995-2.048,1.24
	c0-0.244,0-0.489,0-0.733C43.495,9.26,43.446,8.104,43.44,7.662z"/>
<g>
</g>
<g>
</g>
<g>
</g>
<g>
</g>
<g>
</g>
<g>
</g>
</svg>
