<?xml version="1.0" encoding="utf-8"?>
<!-- Generator: Adobe Illustrator 18.1.1, SVG Export Plug-In . SVG Version: 6.00 Build 0)  -->
<svg version="1.1" id="Layer_2" xmlns="http://www.w3.org/2000/svg" xmlns:xlink="http://www.w3.org/1999/xlink" x="0px" y="0px"
	 width="60px" height="60px" viewBox="0 0 60 60" enable-background="new 0 0 60 60" xml:space="preserve">
<path fill-rule="evenodd" clip-rule="evenodd" d="M19.482,58c-0.863,0-1.727,0-2.59,0c0.198-1.167,0.396-2.333,0.594-3.5
	c-0.467-0.146-0.817-0.515-1.187-0.765c-0.851-0.576-1.625-1.14-2.428-1.75c-0.252-0.256-0.504-0.511-0.755-0.766
	c-2.686-2.059-5.082-6.07-6.313-9.625c-0.388-1.121-0.456-2.196-0.755-3.444c-0.428-1.787-0.547-4.776-0.108-6.672
	c0.036-0.419,0.072-0.838,0.108-1.258c0.235-0.92,0.339-1.933,0.648-2.843c0.721-2.132,1.484-4.16,2.482-6.017
	c1.447-2.693,3.366-5.194,5.395-7.327c0.409-0.43,0.859-0.8,1.295-1.204c0.263-0.244,0.471-0.602,0.755-0.82
	c0.308-0.237,0.928-0.564,1.025-0.985c-0.036,0-0.072,0-0.108,0c-0.487-0.38-1.21-0.494-1.727-0.821
	c-0.87-0.548-1.675-1.409-2.212-2.297c-0.837-1.382-0.83-3.664-0.108-5.14C13.6,2.547,13.631,2.124,13.817,2c1.025,0,2.05,0,3.075,0
	c0,0.036,0,0.073,0,0.109c-1.073,0.737-1.928,3.178-1.025,4.649c0.607,0.989,1.843,1.678,3.075,2.023
	c1.171,0.328,3.031-0.322,3.184,1.039c0.427,0.575-0.334,1.357-0.648,1.586c-1.525,1.111-2.995,2.289-4.317,3.609
	c-3.296,3.292-6.075,7.297-7.769,12.196c-0.459,1.326-0.631,2.775-0.971,4.211c-0.15,0.632-0.028,1.307-0.162,1.913
	c-0.13,0.59-0.056,1.685,0.054,2.188c0,0.328,0,0.657,0,0.985c0.169,0.734,0.232,1.623,0.432,2.296
	c0.264,0.891,0.302,1.709,0.647,2.515c1.507,3.519,3.535,6.762,6.367,8.915c0.886,0.674,1.808,1.372,2.752,1.969
	c0.533,0.337,1.328,0.523,1.565,1.148c0.185,0.489,0.008,1.016-0.108,1.476c-0.101,0.401-0.007,0.639-0.108,1.039
	C19.698,56.507,19.521,57.264,19.482,58z M51.963,2c0.846,0,1.691,0,2.536,0c0.001,0.743-0.161,1.606-0.324,2.242
	c-0.072,0.51-0.144,1.02-0.216,1.532c-0.295,1.03-0.545,2.185-0.863,3.172c-0.192,0.594-0.221,1.112-0.432,1.695
	c-0.779,2.159-1.488,4.423-2.266,6.562c-0.279,0.766-0.37,1.463-0.648,2.242c-0.373,1.048-0.657,2.266-0.971,3.391
	c-0.154,0.552-0.082,1.008-0.216,1.586c-0.13,0.562-0.372,1.911-0.216,2.625c0.148,0.676,0.114,1.445,0.324,2.079
	c1.223,3.696,2.785,6.946,4.1,10.5c0.643,1.737,0.84,3.602,1.295,5.579c0,0.291,0,0.583,0,0.874c0.116,0.561,0.12,1.628,0,2.188
	c0,0.255,0,0.51,0,0.765c-0.104,0.461-0.078,1.023-0.216,1.531c-0.497,1.841-1.003,3.569-1.78,5.086
	c-0.315,0.614-0.565,1.201-0.917,1.75C51.06,57.544,50.975,57.923,50.83,58c-0.989,0-1.979,0-2.968,0c0-0.036,0-0.073,0-0.109
	c0.686-0.709,1.092-1.763,1.565-2.68c0.774-1.502,1.32-3.135,1.834-4.976c0.134-0.481,0.112-1.035,0.216-1.476
	c0-0.292,0-0.584,0-0.875c0.152-0.714,0.064-2.71-0.108-3.391c-0.242-0.956-0.33-1.972-0.647-2.898
	c-0.737-2.152-1.5-4.203-2.374-6.233c-0.63-1.466-1.268-3.027-1.834-4.595c-0.238-0.659-0.245-1.245-0.432-1.969
	c-0.194-0.751-0.216-1.682-0.216-2.68c0-0.292,0-0.584,0-0.874c0.172-0.743,0.111-1.591,0.324-2.352
	c0.663-2.365,1.118-4.682,1.943-6.89c0.587-1.572,1.151-3.281,1.726-4.868c0.246-0.678,0.294-1.286,0.54-1.968
	C51.157,7.056,51.773,4.592,51.963,2z M26.172,17.313c2.177-0.041,4.363-0.018,5.989,0.547c4.978,1.727,8.465,4.577,10.683,9.078
	c0.391,0.792,0.55,1.575,0.863,2.461c0.52,1.474,1.094,4.41,0.647,6.399c-0.119,0.529,0.02,0.915-0.108,1.421
	c-0.327,1.292-0.589,2.579-1.079,3.718c-1.933,4.498-5.244,7.519-9.766,9.407c-1.366,0.57-2.919,0.609-4.532,0.984
	c-0.618,0.145-2.378,0.003-2.86-0.109c-0.486-0.114-0.833,0.012-1.295-0.109c-1.333-0.35-2.603-0.706-3.723-1.203
	c-4.214-1.87-7.244-5.014-9.011-9.353c-0.315-0.773-0.404-1.482-0.647-2.35c-0.428-1.528-0.76-4.088-0.324-5.906
	c0-0.182,0-0.364,0-0.547c0.28-1.162,0.44-2.349,0.863-3.39c1.851-4.554,4.942-7.933,9.388-9.844
	c1.038-0.446,2.192-0.679,3.345-0.984C25.078,17.407,25.795,17.559,26.172,17.313z M26.82,18.953
	c-0.456,0.271-1.298,0.075-1.834,0.219c-0.926,0.247-1.898,0.408-2.752,0.766c-4.16,1.738-7.236,4.817-8.849,9.132
	c-0.356,0.953-0.506,2.019-0.755,3.063c-0.385,1.61-0.036,4.464,0.324,5.742c1.416,5.027,3.856,7.966,8.039,10.172
	c1.036,0.546,2.251,0.953,3.507,1.312c0.38,0.109,0.631,0.017,1.025,0.109c0.377,0.088,1.888,0.315,2.32,0.219
	c0.484-0.109,1.086,0.018,1.618-0.109c0.859-0.205,1.786-0.251,2.59-0.547c4.371-1.612,7.692-4.343,9.496-8.531
	c0.492-1.143,0.758-2.402,1.079-3.718c0.66-2.708-0.218-6.728-1.079-8.477c-0.39-0.793-0.634-1.528-1.079-2.242
	C37.912,21.951,33.473,18.966,26.82,18.953z M23.744,22.454c0.637-0.009,1.353-0.005,1.834,0.108
	c0.047,0.124,0.096,0.142,0.054,0.219c-0.299,0.804-1.796,0.771-1.888,1.75c0.277,0.368,0.263,0.946,0.432,1.422
	c0.358,1.009,1.186,3.314,0.432,4.375c-0.69,0.97-2.341,1.385-3.237,2.187c0.178,0.53,1.034,1.163,1.403,1.585
	c0.158,0.181,0.203,0.436,0.432,0.547c0-0.018,0-0.036,0-0.055c0.342-0.327,0.564-0.838,1.079-0.984c1.259,0,2.518,0,3.777,0
	c0.118-0.041,0.208-0.227,0.323-0.275c0.198-0.018,0.396-0.035,0.594-0.054c0.249-0.083,0.324-0.215,0.756-0.218
	c0.234,0.343,0.317,0.429,0.27,0.984c-0.441,0.336-0.604,0.667-1.241,0.875c-1.173,0.382-2.64,0.157-3.723,0.601
	c-0.641,1.083-0.8,2.448-0.216,3.61c0.131,0.259,0.149,0.494,0.432,0.601c0.07,0.048,0.133,0.049,0.27,0.054
	c0.09-0.127,0.18-0.255,0.27-0.383c0.22-0.682-0.341-1.291-0.108-2.023c0.136-0.424,0.636-0.76,1.025-0.93
	c0.467-0.203,1.064-0.313,1.565-0.438c0.766-0.189,1.875-0.162,2.59,0c0.53,0.121,0.892,0.066,1.349,0.219
	c1.59,0.532,2.871,1.675,3.507,3.172c1.119,2.636-0.091,5.905-1.834,7c-0.369,0.232-0.916,0.427-1.349,0.547
	c-1.823,0.507-3.455-0.356-4.424-1.094c-0.705-0.536-1.101-1.454-2.05-1.75c-0.499-0.156-1.046,0.122-1.349,0.219
	c-0.664,0.213-1.631,0.325-2.374,0.109c-1.104-0.319-1.978-0.941-2.805-1.531c-2.096-1.494-3.569-3.3-4.533-5.961
	c-0.318-0.879-0.54-1.75-0.539-3.008c0-0.255,0-0.51,0-0.766c0.609-2.681,1.963-3.339,4.37-4.156c0.71-0.24,2.142-0.166,2.698-0.546
	c0.374-0.256,0.324-0.892,0.324-1.531c0-1.358,0.149-2.642,0.162-3.829c0.152-0.121,0.167-0.251,0.378-0.328
	C22.724,22.536,23.388,22.692,23.744,22.454z"/>
<g>
</g>
<g>
</g>
<g>
</g>
<g>
</g>
<g>
</g>
<g>
</g>
</svg>
