<?xml version="1.0" encoding="utf-8"?>
<!-- Generator: Adobe Illustrator 18.1.1, SVG Export Plug-In . SVG Version: 6.00 Build 0)  -->
<svg version="1.1" id="Layer_2" xmlns="http://www.w3.org/2000/svg" xmlns:xlink="http://www.w3.org/1999/xlink" x="0px" y="0px"
	 width="60px" height="60px" viewBox="0 0 60 60" enable-background="new 0 0 60 60" xml:space="preserve">
<path d="M37.5,11c1.103,0,2,0.897,2,2v14c0,1.103-0.897,2-2,2h-14c-1.103,0-2-0.897-2-2V13c0-1.103,0.897-2,2-2H37.5 M37.5,10h-14
	c-1.657,0-3,1.343-3,3v14c0,1.657,1.343,3,3,3h14c1.657,0,3-1.343,3-3V13C40.5,11.343,39.157,10,37.5,10L37.5,10z"/>
<path d="M45.5,31c1.103,0,2,0.897,2,2v14c0,1.103-0.897,2-2,2h-14c-1.103,0-2-0.897-2-2V33c0-1.103,0.897-2,2-2H45.5 M45.5,30h-14
	c-1.657,0-3,1.343-3,3v14c0,1.657,1.343,3,3,3h14c1.657,0,3-1.343,3-3V33C48.5,31.343,47.157,30,45.5,30L45.5,30z"/>
<path d="M11.327,28.558L11.327,28.558c0.157,0,0.315,0.019,0.469,0.056l13.612,3.27c1.073,0.258,1.736,1.34,1.478,2.413
	l-3.27,13.613c-0.217,0.903-1.015,1.533-1.942,1.533c-0.157,0-0.315-0.019-0.47-0.056L7.591,46.117
	c-1.072-0.258-1.735-1.34-1.478-2.412l3.27-13.613C9.601,29.188,10.4,28.558,11.327,28.558 M11.327,27.558
	c-1.355,0-2.584,0.925-2.915,2.3l-3.27,13.614c-0.387,1.611,0.605,3.231,2.216,3.618l13.613,3.269
	c0.236,0.057,0.471,0.084,0.704,0.084c1.355,0,2.584-0.924,2.914-2.299l3.27-13.613c0.387-1.611-0.605-3.231-2.216-3.619
	l-13.613-3.27C11.794,27.585,11.558,27.558,11.327,27.558L11.327,27.558z"/>
<path fill-rule="evenodd" clip-rule="evenodd" d="M7.373,8.993l2.121-2.121l43.133,43.134l-2.121,2.121L7.373,8.993"/>
<g>
</g>
<g>
</g>
<g>
</g>
<g>
</g>
<g>
</g>
<g>
</g>
</svg>
