<?xml version="1.0" encoding="utf-8"?>
<!-- Generator: Adobe Illustrator 18.1.1, SVG Export Plug-In . SVG Version: 6.00 Build 0)  -->
<svg version="1.1" id="Layer_2" xmlns="http://www.w3.org/2000/svg" xmlns:xlink="http://www.w3.org/1999/xlink" x="0px" y="0px"
	 width="60px" height="60px" viewBox="0 0 60 60" enable-background="new 0 0 60 60" xml:space="preserve">
<g>
	<path d="M30,53C17.042,53,6.5,42.458,6.5,29.5S17.042,6,30,6c12.958,0,23.5,10.542,23.5,23.5S42.958,53,30,53z M30,8
		C18.145,8,8.5,17.645,8.5,29.5C8.5,41.355,18.145,51,30,51c11.855,0,21.5-9.645,21.5-21.5C51.5,17.645,41.855,8,30,8z"/>
</g>
<path d="M34.767,20.069c-1.122-1.089-2.794-1.633-5.016-1.633c-0.836,0-1.595,0.105-2.277,0.313
	c-0.682,0.209-1.282,0.457-1.799,0.743c-0.517,0.286-0.946,0.577-1.287,0.875c-0.341,0.297-0.577,0.523-0.709,0.676l1.122,1.485
	c0.132-0.132,0.341-0.319,0.627-0.561c0.286-0.242,0.632-0.478,1.039-0.709c0.407-0.231,0.885-0.434,1.436-0.611
	c0.55-0.176,1.177-0.264,1.881-0.264c1.254,0,2.294,0.337,3.119,1.009c0.825,0.673,1.237,1.781,1.237,3.325
	c0,0.706-0.11,1.357-0.33,1.952c-0.22,0.596-0.517,1.158-0.891,1.687c-0.374,0.53-0.808,1.041-1.303,1.533
	c-0.495,0.493-1.018,1.002-1.568,1.528c-0.66,0.635-1.348,1.293-2.063,1.972c-0.715,0.68-1.364,1.415-1.947,2.207
	c-0.583,0.792-1.062,1.634-1.436,2.525c-0.374,0.891-0.561,1.854-0.561,2.888c0,0.242,0.005,0.424,0.016,0.544
	c0.011,0.121,0.017,0.204,0.017,0.248h13.167v-1.881H26.451v-0.066c0-0.528,0.126-1.061,0.38-1.6
	c0.253-0.539,0.594-1.089,1.023-1.65c0.429-0.561,0.913-1.122,1.452-1.683c0.539-0.561,1.094-1.116,1.667-1.667
	c0.682-0.66,1.353-1.32,2.013-1.98s1.248-1.342,1.765-2.046c0.517-0.704,0.929-1.435,1.237-2.194
	c0.308-0.759,0.462-1.567,0.462-2.425C36.45,22.671,35.889,21.158,34.767,20.069z"/>
<g>
</g>
<g>
</g>
<g>
</g>
<g>
</g>
<g>
</g>
<g>
</g>
</svg>
