<?xml version="1.0" encoding="utf-8"?>
<!-- Generator: Adobe Illustrator 18.1.1, SVG Export Plug-In . SVG Version: 6.00 Build 0)  -->
<svg version="1.1" id="Layer_2" xmlns="http://www.w3.org/2000/svg" xmlns:xlink="http://www.w3.org/1999/xlink" x="0px" y="0px"
	 width="60px" height="60px" viewBox="0 0 60 60" enable-background="new 0 0 60 60" xml:space="preserve">
<g>
	<g>
		<path fill-rule="evenodd" clip-rule="evenodd" fill="#0C0E0F" d="M53.252,31.309c-0.304-0.718-0.925-1.412-1.445-1.942
			c-0.222-0.204-0.445-0.407-0.667-0.611c-1.05-1.435-2.052-2.844-2.557-4.827c-0.387-1.524,0.2-3.311,0.556-4.385
			c0.419-1.263,0.506-3.851,0.111-5.218c-1.103-3.823-3.234-6.182-6.112-8.213c-0.652-0.46-1.316-1.017-2.001-1.443
			c-2.187-1.358-4.622-2.209-7.391-2.997c-0.231-0.066-0.648-0.164-0.889-0.222h-0.945c-1.799-0.432-5.118-0.451-6.891,0
			c-0.524,0.133-0.953,0.058-1.445,0.222c-1.711,0.572-3.369,1.075-4.835,1.887c-4.3,2.381-7.497,6.087-9.724,10.545
			c-0.539,1.079-0.782,2.181-1.222,3.385c-0.385,1.053-0.586,2.317-0.889,3.497c-0.037,0.48-0.074,0.962-0.111,1.443
			c-0.184,0.797-0.296,2.578-0.111,3.44c0.173,0.807-0.071,1.523,0.111,2.276c0.413,1.703,0.542,3.405,1.112,4.938
			c0.864,2.332,1.893,4.552,3.223,6.439c0.614,0.871,1.358,1.65,2.001,2.497c0.454,0.6,1.278,1.26,1.889,1.721
			c0.384,0.289,0.718,0.716,1.111,0.998c0.311,0.224,1.444,0.807,1.556,1.111v11.322c0.297,0.307,0.477,0.633,0.945,0.777h18.893
			c0.585,0,1.192,0.051,1.5-0.222c0.67-0.24,0.556-1.202,0.556-2.109v-5.772c0.763,0.052,1.502,0.444,2.167,0.666
			c1.899,0.636,5.592,1.029,7.168-0.111c0.785-0.568,1.477-1.996,1.111-3.496c-0.116-0.478-0.408-1.314-0.222-1.998
			c0.171-0.631,0.498-1.284,0.667-1.998c0.289-1.225-0.857-2.709-1.556-2.941v-0.223c0.713-0.107,1.993-1.026,2.167-1.665
			c0.209-0.764-1.077-2.439-1.445-2.719v-0.167c2.138-0.074,3.23-0.559,3.723-2.331C53.5,32.37,53.45,31.778,53.252,31.309z
			 M47.639,46.738c0.078,0.288,0.02,0.671,0.167,0.888v0.666c-0.265,0.57-2.221,0.79-3.168,0.555
			c-1.307-0.325-2.591-0.544-3.779-0.999c-0.936-0.359-1.669-0.989-2.89-0.888c-0.145,0.139-0.388,0.221-0.5,0.389
			c-0.397,0.589-0.222,2.007-0.222,2.941v5.328h-8.502c-0.204-1.068-0.055-2.492-0.055-3.663c0-1.47-0.11-3.006,0.222-4.219
			c0.074-0.27,0.168-0.517,0.256-0.77C29.279,46.978,29.387,47,29.5,47c1.657,0,3-1.343,3-3c0-0.462-0.113-0.894-0.3-1.285
			c0.856-0.638,1.848-1.147,2.992-1.527c1.5-0.498,3.776-0.277,5.668-0.277c3.196,0,5.279-0.174,7.224,1.109
			c0.167,0.916-0.298,1.515-0.5,2.22C47.371,44.98,47.459,46.066,47.639,46.738z M51.029,32.586v0.111
			c-1.187,0.22-2.225,0.252-3.001,0.833c-1.32,0.988-0.452,3.107,0.389,3.885c-0.164,0.317-1.326,0.609-1.723,0.778
			c-0.29,0.123-0.62,0.354-0.945,0.443h-2.834c-2.657,0-5.973-0.312-8.113,0.333c-1.602,0.483-3.012,1.256-4.216,2.243
			C30.249,41.079,29.885,41,29.5,41c-1.657,0-3,1.343-3,3c0,0.707,0.255,1.349,0.665,1.862c-0.238,0.615-0.408,1.289-0.586,1.931
			c-0.106,0.382,0.009,1.147-0.167,1.442v4.329c0,0.628,0.117,1.532-0.055,2.054h-6.335c-0.147-0.781-0.055-1.844-0.055-2.72v-5.105
			c0-0.577,0.161-2.534-0.056-2.886c-0.042-0.692-0.547-0.772-1-1.054c-0.849-0.529-1.649-1.178-2.445-1.776
			c-0.37-0.37-0.741-0.74-1.111-1.11c-1.713-1.71-3.294-3.742-4.334-6.105c-0.707-1.605-1.149-3.328-1.667-5.162
			c-0.037-0.37-0.074-0.74-0.111-1.11c-0.542-2.194-0.424-5.874,0.111-7.991c0.334-1.323,0.446-2.487,0.889-3.663
			c1.678-4.451,4.353-8.231,8.113-10.6c1.569-0.989,3.319-1.732,5.279-2.331c0.732-0.224,1.538-0.265,2.278-0.444
			c0.412-0.1,0.861,0.069,1.167-0.112c1.765,0.008,3.457-0.001,4.89,0.333h1c3.415,0.84,6.129,2.31,8.613,4.051
			c2.408,1.689,4.5,3.623,5.446,6.771c0.536,1.784-0.03,3.818-0.445,5.272c-0.097,0.34-0.02,0.537-0.111,0.889
			c-0.162,0.628-0.413,1.76-0.222,2.608c0.167,0.742,0.196,1.541,0.445,2.22c0.67,1.821,1.708,3.337,2.778,4.773
			c0.343,0.46,0.882,0.819,1.223,1.276c0.147,0.198,0.223,0.434,0.389,0.61C51.083,32.404,51.082,32.507,51.029,32.586z"/>
	</g>
</g>
<g>
</g>
<g>
</g>
<g>
</g>
<g>
</g>
<g>
</g>
<g>
</g>
</svg>
