<?xml version="1.0" encoding="utf-8"?>
<!-- Generator: Adobe Illustrator 18.1.1, SVG Export Plug-In . SVG Version: 6.00 Build 0)  -->
<svg version="1.1" id="Layer_2" xmlns="http://www.w3.org/2000/svg" xmlns:xlink="http://www.w3.org/1999/xlink" x="0px" y="0px"
	 width="60px" height="60px" viewBox="0 0 60 60" enable-background="new 0 0 60 60" xml:space="preserve">
<path fill-rule="evenodd" clip-rule="evenodd" fill="#0C0E0F" d="M26.055,6c2.888,0,5.776,0,8.664,0c0,1.248,0,1.496,0,2.743
	c-0.861,0.01-2.039-0.022-2.809,0.048c-0.005,1.255-0.168,3.098,0.047,4.222c0.096,0,0.191,0,0.286,0
	c0.364,0.216,0.988,0.072,1.428,0.193c1.387,0.38,2.797,0.571,4.046,1.103c1.134,0.483,2.319,0.999,3.332,1.632
	c0.424,0.264,1.097,0.945,1.618,1.007c0.254-0.256,0.508-0.511,0.762-0.767c0.662-0.667,1.368-1.322,1.999-2.016
	c0.311-0.342,0.688-0.987,1.143-1.152c0.905,0.928,1.809,1.856,2.714,2.784c0.297,0.3,0.849,0.636,1,1.056
	c-0.27,0.272-0.54,0.544-0.809,0.816c-0.659,0.664-1.295,1.349-1.952,2.015c-0.297,0.301-1.002,0.806-1.143,1.2
	c0.588,0.486,1.095,1.7,1.523,2.399c1.094,1.782,1.666,3.893,2.238,6.238c0.032,0.367,0.063,0.736,0.095,1.104
	c0.058,0.26,0.079,0.723,0.143,1.007c0,0.352,0,0.704,0,1.056c0.118,0.564,0.038,1.678-0.095,2.255
	c-0.048,0.464-0.095,0.928-0.143,1.392c-0.305,1.187-0.495,2.367-0.904,3.455c-2.022,5.363-5.898,9.396-11.044,11.612
	c-0.734,0.316-1.434,0.456-2.237,0.72c-0.963,0.316-2.097,0.416-3.19,0.671c-0.381,0.016-0.762,0.032-1.142,0.049
	c-0.744,0.16-2.025,0.109-2.713-0.049c-0.66-0.15-1.241-0.035-1.857-0.192c-1.441-0.368-2.831-0.656-4.094-1.2
	c-4.86-2.093-8.636-5.85-10.711-10.749c-0.315-0.743-0.454-1.451-0.714-2.255c-1.011-3.128-1.036-7.968,0-11.132
	c0.799-2.441,1.886-4.549,3.237-6.43c0.209-0.291,0.548-0.529,0.762-0.815c1.906-2.553,4.818-4.455,7.95-5.758
	c1.081-0.45,2.295-0.696,3.475-1.008c0.533-0.141,1.562-0.023,1.952-0.288c0.135-0.218,0.047-0.836,0.047-1.152
	c0-1.007,0-2.015,0-3.023c-0.812-0.077-2.021-0.01-2.904-0.048C26.056,7.443,26.041,7.196,26.055,6z M30.039,15
	c-0.287,0.168-1.747,0.1-2.188,0.21c-1.473,0.366-2.841,0.605-4.116,1.153c-3.968,1.705-6.705,4.53-8.857,8.07
	c-0.532,0.875-0.856,1.965-1.25,2.935c-0.967,2.373-1.127,7.147-0.313,9.799c0.307,1,0.45,1.869,0.834,2.777
	c1.762,4.161,4.956,7.459,9.066,9.275c1.149,0.507,2.375,0.907,3.699,1.31c0.707,0.215,1.378,0.094,2.136,0.262
	c0.411,0.091,1.624,0.21,2.084,0.105c0.447-0.103,1.031,0.009,1.511-0.105c1.118-0.265,2.255-0.3,3.282-0.682
	c5.156-1.909,9.051-5.207,11.15-10.165c0.442-1.043,0.741-2.221,1.042-3.354c0.159-0.597,0.132-1.229,0.26-1.781
	c0-0.28,0-0.559,0-0.839c0.114-0.53,0.12-1.567,0-2.096c0-0.279,0-0.559,0-0.839c-0.125-0.527-0.106-1.149-0.26-1.729
	c-0.277-1.039-0.612-2.123-0.99-3.04C44.524,19.948,38.909,15.015,30.039,15z M31.911,21.746c0,1.728,0,3.456,0,5.183
	c0,0.862-0.1,1.911,0.047,2.687c1.755,0.816,2.954,3.088,1.618,5.231c-0.208,0.334-0.634,0.731-0.952,0.959
	c-0.217,0.155-0.554,0.172-0.667,0.432c-0.148,0.235-0.053,1.527-0.047,1.919c-0.762-0.005-2.501-0.151-3.094,0.048
	c0-0.719,0-1.44,0-2.159c-1.682-0.79-2.662-3.152-1.428-5.134c0.214-0.344,0.663-0.785,1-1.007c0.156-0.103,0.445-0.119,0.524-0.289
	c0-1.791,0-3.582,0-5.374c0.177-0.282,0.053-1.973,0.047-2.447C29.534,21.601,31.173,21.742,31.911,21.746z"/>
<g>
</g>
<g>
</g>
<g>
</g>
<g>
</g>
<g>
</g>
<g>
</g>
</svg>
