<?xml version="1.0" encoding="utf-8"?>
<!-- Generator: Adobe Illustrator 18.1.1, SVG Export Plug-In . SVG Version: 6.00 Build 0)  -->
<svg version="1.1" id="Layer_2" xmlns="http://www.w3.org/2000/svg" xmlns:xlink="http://www.w3.org/1999/xlink" x="0px" y="0px"
	 width="60px" height="60px" viewBox="0 0 60 60" enable-background="new 0 0 60 60" xml:space="preserve">
<path fill-rule="evenodd" clip-rule="evenodd" d="M29.468,5.014C30.114,5,30.782,5.03,31.331,5.164c0.352,0,0.705,0,1.058,0
	c0.72,0.17,1.54,0.163,2.266,0.348c1.815,0.463,3.921,0.948,5.641,1.793c6.257,3.075,10.288,7.45,13.095,13.945
	c1.764,4.082,2.108,11.433,0.604,15.439c-0.396,1.055-0.529,2.078-1.007,3.038c-3.469,6.959-8.028,11.458-15.865,14.094
	c-1.607,0.541-3.077,0.542-4.734,0.946c-0.302,0-0.605,0-0.907,0c-0.44,0.023-1.063,0.054-1.46,0.149
	c-0.346,0.083-0.803-0.038-1.058-0.1c-0.252,0-0.504,0-0.756,0c-0.414-0.094-1.086-0.064-1.46-0.15
	c-0.205-0.046-0.568,0.038-0.907-0.049c-0.62-0.158-1.356-0.207-2.014-0.398c-1.918-0.557-3.735-1.161-5.339-1.992
	C11.53,48.623,6.726,42.993,4.99,34.548c-0.31-1.507-0.453-2.994-0.453-4.781c0-0.65-0.037-1.341,0.101-1.892
	c0.17-0.682,0.045-1.3,0.201-1.943c0.413-1.693,0.689-3.434,1.41-5.129c2.889-6.787,7.726-11.345,14.606-14.195
	c1.703-0.705,3.644-0.887,5.49-1.344c0.588-0.146,1.309-0.056,1.914-0.149C28.658,5.052,29.181,5.195,29.468,5.014z M28.41,7.057
	C28,7.291,27.031,7.129,26.496,7.255c-1.239,0.293-2.467,0.411-3.626,0.797c-4.301,1.433-8.315,3.921-10.778,7.172
	c-0.197,0.26-0.511,0.481-0.705,0.747c-0.361,0.496-0.662,0.98-1.007,1.494c-0.185,0.276-0.452,0.541-0.554,0.897
	c0.235,0,0.47,0,0.705,0c0.305-0.177,1.422-0.113,1.763-0.199c1.25-0.318,2.656-0.474,3.929-0.996
	c2.013-0.826,3.535-1.991,5.137-3.187c0.185-0.2,0.369-0.399,0.554-0.598c0.613-0.606,1.182-1.197,1.712-1.892
	c0.155-0.204,0.425-0.317,0.604-0.499c0.829-0.021,0.93,0.17,1.309,0.548c0.036,0.654,0.018,1.489,0.202,2.042
	c0.796,2.398,2.844,4.048,5.137,4.98c1.026,0.417,2.164,0.455,3.274,0.698c2.124,0.463,5.5,0.489,7.454,0.1
	c0.537-0.067,1.074-0.133,1.612-0.199c1.433-0.385,2.885-0.672,4.13-1.195c0.398-0.167,1.522-0.457,1.611-0.847
	c-0.395-0.306-0.657-0.893-0.957-1.295c-0.564-0.758-1.295-1.43-1.964-2.091c-0.235-0.249-0.47-0.498-0.705-0.747
	c-1.26-0.94-2.458-1.945-3.828-2.789c-1.986-1.224-4.247-1.912-6.799-2.59C33.027,7.158,30.967,7.05,28.41,7.057z M23.776,14.377
	c-0.481,0.695-1.281,1.29-1.964,1.793c-0.389,0.286-0.751,0.676-1.159,0.947c-1.961,1.3-4.211,2.192-6.85,2.838
	c-1.024,0.251-2.51,0.188-3.727,0.448c-0.444,0.096-1.026-0.025-1.41,0.05c-0.075,0.311-0.284,0.571-0.403,0.847
	c-0.272,0.629-0.491,1.317-0.705,1.942c-0.441,1.292-0.545,2.558-0.856,3.835c-0.017,0.331-0.033,0.664-0.05,0.996
	c-0.21,0.928-0.217,2.616,0,3.535c0,0.266,0,0.531,0,0.797c0.13,0.552,0.147,1.29,0.252,1.743c0.329,1.429,0.736,2.866,1.259,4.084
	c0.42,0.977,0.718,1.851,1.209,2.739c2.667,4.823,6.854,8.261,12.189,10.459c1.752,0.722,3.585,0.864,5.339,1.295
	c0.25,0.061,0.45-0.022,0.604,0c1.336,0.19,3.148,0.122,4.482,0c2.916-0.267,5.793-1.106,8.059-2.291
	c5.109-2.674,8.757-6.291,11.131-11.654c0.57-1.289,0.861-2.779,1.209-4.034c0.545-1.968,0.774-4.709,0.403-6.973
	c-0.121-0.739-0.064-1.658-0.302-2.44c-0.25-0.818-0.462-1.975-0.806-2.888c-0.461-1.224-1.063-2.368-1.611-3.486
	c-1.249,0.544-2.545,1.122-3.929,1.594c-0.368,0.125-1.457,0.4-1.712,0.348c-3.221,1.047-9.592,0.875-12.642-0.05
	c-1.09-0.329-2.096-0.471-2.972-0.996c-1.414-0.849-2.777-1.881-3.727-3.187c-0.301-0.414-0.648-0.929-0.856-1.395
	C24.102,14.989,24.046,14.515,23.776,14.377z M18.085,25.832c3.005-0.04,4.771,1.644,4.684,4.483
	c-0.299,0.247-0.308,0.57-0.856,0.598c-0.347,0.196-0.935-0.235-1.058-0.448c-0.185-0.32-0.066-0.888-0.202-1.246
	c-0.26-0.688-0.926-1.168-1.712-1.344c-1.186-0.267-2.177,0.74-2.418,1.444c-0.264,0.773,0.007,1.53-0.957,1.594
	c-0.264,0.16-0.603-0.083-0.755-0.199c-0.617-0.469-0.402-1.705-0.101-2.391c0.411-0.937,1.274-1.781,2.216-2.192
	C17.277,25.978,17.776,26.036,18.085,25.832z M40.498,25.832c2.282-0.047,3.571,0.898,4.331,2.341
	c0.421,0.799,0.789,2.691-0.504,2.74c-0.139,0.085-0.334,0.012-0.554,0c-0.154-0.197-0.443-0.309-0.554-0.548
	c-0.173-0.373-0.049-0.892-0.201-1.245c-0.321-0.747-1.544-1.67-2.77-1.146c-0.246,0.105-0.565,0.273-0.756,0.448
	c-0.245,0.226-0.509,0.694-0.604,1.046c0,0.2,0,0.399,0,0.598c-0.118,0.442-0.372,0.807-0.907,0.847
	c-0.149,0.095-0.345,0.015-0.554,0c-0.09-0.115-0.185-0.11-0.302-0.199c-0.084-0.116-0.168-0.233-0.252-0.349
	c-0.155-2.032,0.794-3.267,2.065-4.035C39.357,26.076,40.098,26.09,40.498,25.832z M19.999,38.084
	c1.173,0.008,1.156,0.796,1.561,1.544c0.222,0.411,0.526,0.86,0.806,1.246c1.279,1.761,3.093,2.752,5.54,3.387
	c0.568,0.147,1.922,0.377,2.72,0.199c1.455-0.325,2.66-0.587,3.778-1.196c0.519-0.283,0.953-0.754,1.41-1.095
	c0.275-0.205,0.601-0.43,0.806-0.698c0.505-0.661,1.008-1.322,1.41-2.091c0.218-0.417,0.287-0.978,0.755-1.145
	c0.707-0.587,1.538,0.303,1.511,1.096c-0.218,0.242-0.246,0.646-0.403,0.946c-0.32,0.612-0.706,1.238-1.108,1.793
	c-1.319,1.819-3.38,3.204-5.742,3.984c-0.618,0.204-1.328,0.254-1.964,0.399c-0.943,0.214-2.787,0-3.525-0.199
	c-0.647-0.175-1.136-0.185-1.713-0.398c-2.068-0.765-3.772-2.061-4.986-3.685c-0.55-0.736-1.015-1.414-1.41-2.341
	c-0.118-0.277-0.406-0.734-0.151-1.096C19.408,38.324,19.729,38.322,19.999,38.084z"/>
<g>
</g>
<g>
</g>
<g>
</g>
<g>
</g>
<g>
</g>
<g>
</g>
</svg>
