<?xml version="1.0" encoding="utf-8"?>
<!-- Generator: Adobe Illustrator 18.1.1, SVG Export Plug-In . SVG Version: 6.00 Build 0)  -->
<svg version="1.1" id="Layer_1" xmlns="http://www.w3.org/2000/svg" xmlns:xlink="http://www.w3.org/1999/xlink" x="0px" y="0px"
	 width="60px" height="60px" viewBox="0 0 60 60" enable-background="new 0 0 60 60" xml:space="preserve">
<path fill-rule="evenodd" clip-rule="evenodd" fill="#0C0E0F" d="M29.26,3.084C33.141,3,37.065,3.849,39.666,5.148
	c1.248,0.623,2.455,1.043,3.588,1.753c5.139,3.219,8.584,7.451,11.022,13.409c2.216,5.417,2.224,13.273-0.051,18.67
	c-3.347,7.94-8.665,12.759-16.917,15.782c-1.339,0.491-2.842,0.572-4.306,0.929c-0.873,0.212-1.939,0.014-2.769,0.206
	c-0.449,0.104-1.05-0.027-1.384-0.103c-0.393,0-0.786,0-1.179,0c-0.414-0.095-1.007-0.113-1.384-0.206c-0.154,0-0.308,0-0.462,0
	c-0.811-0.201-1.706-0.242-2.512-0.516c-1.815-0.616-3.565-1.192-5.126-2.012c-5.886-3.09-10.159-7.596-12.816-13.924
	c-0.461-1.098-0.664-2.193-1.025-3.405c-0.319-1.069-0.396-2.314-0.667-3.507c-0.017-0.585-0.034-1.17-0.051-1.754
	c-0.123-0.57-0.128-1.391,0-1.96c0-0.378,0-0.757,0-1.135c0.137-0.607,0.045-1.281,0.205-1.909c0.481-1.882,0.8-3.685,1.435-5.363
	C7.847,13.295,13.67,7.425,20.443,4.838c1.337-0.511,2.761-0.831,4.203-1.238c0.616-0.174,1.268-0.169,1.845-0.309
	C27.181,3.123,28.755,3.405,29.26,3.084z M28.491,5.251c-0.447,0.263-1.57,0.063-2.153,0.206c-1.254,0.308-2.576,0.396-3.742,0.825
	c-2.361,0.87-4.532,1.8-6.459,3.095c-0.783,0.525-1.503,1.182-2.256,1.753c-0.119,0.138-0.239,0.276-0.359,0.413
	c-0.821,0.625-1.69,1.495-2.307,2.321c-0.902,1.209-1.762,2.448-2.563,3.765c-0.836,1.374-1.371,3.049-1.948,4.642
	c-1.326,3.66-1.369,10.095-0.103,13.821c0.083,0.247,0.018,0.375,0.103,0.62c0.345,1.002,0.708,2.031,1.128,2.992
	c2.529,5.78,7.52,10.295,13.533,12.584c1.564,0.597,3.258,0.816,5.024,1.238c0.566,0.135,1.04-0.028,1.64,0.103
	c0.911,0.198,2.526,0.207,3.435,0c0.614-0.14,1.114,0.035,1.692-0.103c1.203-0.288,2.461-0.488,3.537-0.825
	c8.174-2.558,13.42-7.959,16.148-15.989c1.689-4.97,1.088-12.021-0.718-16.298c-0.457-1.082-0.865-2.065-1.436-2.991
	c-0.165-0.268-0.158-0.642-0.512-0.722c-0.318,0.476-0.879,0.892-1.333,1.238c-0.222,0.241-0.445,0.481-0.667,0.722
	c-0.521,0.499-1.055,1.018-1.589,1.496c-0.343,0.307-1.113,0.697-1.179,1.238c0.536,0.597,0.77,1.886,1.076,2.734
	c1.682,4.658,0.635,10.472-1.435,13.873c-2.223,3.653-5.05,6.48-9.278,8.097c-0.766,0.293-1.465,0.377-2.307,0.619
	c-2.191,0.627-5.971,0.631-8.1-0.103c-1.771-0.611-3.416-1.243-4.87-2.166c-1.083-0.688-1.972-1.609-2.973-2.373
	c-0.136-0.104-0.193-0.284-0.307-0.412c-0.616-0.696-1.195-1.329-1.743-2.115c-1.146-1.642-2.055-3.46-2.717-5.621
	c-0.254-0.828-0.203-1.602-0.41-2.527c-0.219-0.977-0.247-3.322,0-4.332c0.304-1.246,0.47-2.506,0.923-3.61
	c2.134-5.2,5.768-8.769,11.073-10.779c2.819-1.069,7.7-1.174,10.611-0.103c0.801,0.294,1.629,0.584,2.409,0.928
	c0.479,0.213,0.933,0.677,1.538,0.722c0.334-0.501,0.889-0.841,1.333-1.238c0.779-0.697,1.51-1.483,2.256-2.217
	c0.329-0.325,1.074-0.681,1.179-1.187c-0.5-0.242-0.928-0.643-1.384-0.928c-0.727-0.455-1.581-0.894-2.358-1.238
	C36.55,5.927,33.347,5.315,28.491,5.251z M50.021,16.39c0-0.068,0-0.137,0-0.206c-0.341-0.271-0.512-0.774-0.769-1.135
	c-0.512-0.72-1.159-1.354-1.692-2.063c-0.222-0.205-0.444-0.412-0.666-0.619c-0.587-0.59-1.177-1.252-1.846-1.754
	c-0.341-0.256-0.735-0.468-1.025-0.774c-0.034,0-0.068,0-0.102,0c0,0.034,0,0.069,0,0.103c-0.255,0.415,0.061,1.325-0.051,1.857
	c-0.111,0.524-0.051,1.295-0.051,1.908c-0.017,0.826-0.034,1.651-0.051,2.475c0.263,0.09,0.73,0.055,1.076,0.052
	c0.29,0.18,1.133,0.052,1.538,0.052C47.635,16.288,48.838,16.364,50.021,16.39z M29.516,13.915
	c-0.395,0.233-1.094-0.014-1.589,0.103c-0.85,0.202-1.749,0.262-2.563,0.517c-2.399,0.75-4.176,1.955-5.946,3.3
	c-0.626,0.475-1.269,1.315-1.743,1.96c-0.137,0.137-0.273,0.275-0.41,0.413c-1.081,1.513-1.809,3.251-2.461,5.208
	c-0.233,0.7-0.244,1.506-0.41,2.218c0,0.258,0,0.516,0,0.774c-0.202,0.943-0.114,2.345,0.102,3.25
	c0.165,0.688,0.097,1.276,0.308,1.907c1.352,4.049,3.386,7.047,6.664,9.129c1.271,0.808,2.74,1.348,4.306,1.858
	c2.866,0.931,7.04,0.474,9.432-0.516c0.645-0.267,1.209-0.405,1.794-0.722c3.779-2.048,6.278-5.136,7.638-9.645
	c0.572-1.894,0.892-5.146,0.308-7.323c-0.338-1.257-0.711-2.42-1.179-3.507c-1.832,0.562-3.995,0.891-5.895,1.444
	c-0.767,0.223-1.845,0.165-1.999,0.98c0.334,0.237,0.487,0.74,0.666,1.134c0.882,1.944,1.013,4.375,0,6.344
	c-1.056,2.052-2.716,3.355-5.126,4.074c-0.929,0.277-2.586,0.321-3.537,0c-1.31-0.443-2.426-1.108-3.332-1.96
	c-0.643-0.604-1.235-1.495-1.641-2.321c-0.228-0.464-0.372-1.043-0.512-1.547c-0.34-1.224-0.054-2.985,0.307-3.868
	c1.067-2.605,2.738-4.253,5.588-5.054c1.616-0.455,3.672,0.075,4.716,0.619c0.451,0.235,0.909,0.782,1.435,0.877
	c0.239-0.241,0.478-0.481,0.718-0.722c0.276-0.614,0.261-1.299,0.461-1.96c0.499-1.647,0.921-3.548,1.487-5.106
	C34.912,14.815,32.711,13.939,29.516,13.915z M37.564,22.116c1.018-0.057,2.446-0.506,3.383-0.774
	c0.516-0.147,1.089-0.074,1.538-0.309c0.287-0.149,0.481-0.51,0.718-0.722c0.635-0.568,1.247-1.276,1.948-1.754
	c0-0.052,0-0.103,0-0.155c-0.82-0.016-1.64-0.033-2.461-0.051c-0.368,0-0.935,0.032-1.076-0.051
	c-0.041-0.053-0.018-0.014-0.051-0.103c0.125-0.197,0.051-0.738,0.051-1.031c0-0.77,0.241-1.862,0-2.579
	c-0.686,0.46-1.147,1.211-1.794,1.702c-0.267,0.202-0.872,0.654-1.025,0.928c-0.217,0.389-0.174,0.896-0.307,1.341
	c-0.184,0.614-0.312,1.289-0.513,1.96C37.83,20.999,37.596,21.531,37.564,22.116z M29.157,24.075
	c-0.29,0.177-1.171,0.205-1.538,0.361c-0.871,0.37-1.736,1.022-2.256,1.753c-0.337,0.476-0.648,1.149-0.82,1.754
	c-0.907,3.179,1.087,5.766,3.076,6.602c0.512,0.215,0.955,0.174,1.589,0.309c2.805,0.601,5.03-1.684,5.69-3.507
	c0.408-1.125,0.279-2.859-0.102-3.868c-0.126-0.332-0.183-0.752-0.513-0.877c-0.276,0.416-0.731,0.781-1.128,1.082
	c-0.308,0.234-0.531,0.618-0.82,0.877c-0.73,0.653-1.5,1.277-2.204,1.96c-0.282,0.014-0.513,0.088-0.718-0.051
	c-0.392-0.104-0.434-0.369-0.667-0.619c-0.045-1.132,0.434-1.21,1.025-1.805c0.76-0.765,1.546-1.504,2.307-2.269
	c0.247-0.248,0.693-0.474,0.82-0.825c-0.426-0.132-0.806-0.462-1.23-0.619C30.958,24.07,30.109,24.085,29.157,24.075z"/>
<g>
</g>
<g>
</g>
<g>
</g>
<g>
</g>
<g>
</g>
<g>
</g>
</svg>
