<?xml version="1.0" encoding="utf-8"?>
<!-- Generator: Adobe Illustrator 18.1.1, SVG Export Plug-In . SVG Version: 6.00 Build 0)  -->
<svg version="1.1" id="Layer_2" xmlns="http://www.w3.org/2000/svg" xmlns:xlink="http://www.w3.org/1999/xlink" x="0px" y="0px"
	 width="60px" height="60px" viewBox="0 0 60 60" enable-background="new 0 0 60 60" xml:space="preserve">
<path fill-rule="evenodd" clip-rule="evenodd" fill="#0C0E0F" d="M27.958,3.059C32.993,3,36.39,3.01,39.338,5.078
	c0.793,0.556,1.611,1.21,2.015,2.137C41.87,8.401,41.5,12,41.5,12h10c0,0,1.995,0.391,2,2c0.011,3.258-0.021,38.192,0,41
	c0.014,1.848-2,2-2,2h-42c0,0-1.97-0.122-2-2c-0.043-2.704,0-37.819,0-41c0-1.539,2-2,2-2l9.922-0.093c0,0,0-0.079,0-0.118
	c0.195-0.314,0.059-1.22,0.059-1.662c0-1.233-0.046-2.39,0.415-3.148c1.058-1.74,2.944-2.743,5.038-3.444
	c0.571-0.192,1.212-0.228,1.778-0.356C27.158,3.077,27.645,3.262,27.958,3.059z M27.543,5.552c-0.358,0.216-1.807,0.203-2.312,0.357
	c-1.249,0.38-2.71,1.003-3.201,2.138C21.707,8.795,21.5,12,21.5,12h18c0,0-0.276-2.555-0.28-3.478
	c-0.096-0.136-0.039-0.293-0.118-0.475c-0.132-0.3-0.472-0.736-0.711-0.95C36.23,5.168,31.603,5.558,27.543,5.552z M11.5,14
	c0,0-2.03,0.069-2,2c0.03,1.931-0.093,35.023,0,37c0.093,1.977,2,2,2,2h38c0,0,1.986-0.064,2-2c0.014-1.935,0.06-35.333,0-37
	c-0.06-1.667-2-2-2-2S11.504,14.001,11.5,14z M30.726,20.036c1.864-0.036,3.948,0.326,5.306,0.877
	c4.644,1.879,7.616,4.87,9.383,9.587c0.498,1.33,1.085,3.855,0.67,5.644c0,0.219,0,0.438,0,0.657
	c-0.266,1.078-0.406,2.15-0.782,3.124c-1.69,4.371-5.022,7.5-9.495,9.149c-1.18,0.436-2.496,0.463-3.853,0.767
	c-0.706,0.159-1.848,0.016-2.402-0.109c-0.665-0.15-1.18-0.047-1.788-0.22c-0.971-0.276-1.951-0.623-2.792-0.986
	c-4.369-1.888-7.062-5.121-8.601-9.808c-0.433-1.319-0.873-3.976-0.447-5.698c0.26-1.049,0.412-2.113,0.782-3.068
	c1.621-4.196,4.787-7.206,8.936-8.931c1.09-0.453,2.324-0.589,3.575-0.877C29.679,20.04,30.365,20.257,30.726,20.036z M30,22.337
	c-0.264,0.157-0.648,0.027-1.005,0.11c-0.887,0.207-1.823,0.335-2.625,0.657c-3.438,1.381-6.12,3.781-7.428,7.232
	c-0.301,0.794-0.459,1.67-0.67,2.521c-0.403,1.625-0.051,4.155,0.335,5.424c1.28,4.208,3.652,6.802,7.596,8.383
	c1.393,0.558,2.9,0.877,4.915,0.877c0.41,0,0.819,0,1.229,0c1.049-0.232,2.13-0.312,3.072-0.658
	c3.509-1.286,5.841-3.614,7.428-6.793c1.313-2.631,1.268-7.096,0.111-9.808C40.862,25.368,37.106,22.359,30,22.337z M30.95,27.743
	c0.15,0.013,0.349,0.041,0.447,0.111c0.428,0.11,0.473,0.392,0.726,0.657c0,2.356,0,2.867,0,5.223
	c0.469,0.236,1.515,0.11,2.178,0.11c1.694,0,1.504,0,3.198,0c0.128,0.101,0.312,0.119,0.447,0.219
	c0.116,0.086,0.151,0.239,0.279,0.328c0.052,0.311,0.211,0.706,0,0.987c-0.102,0.366-0.382,0.43-0.614,0.657
	c-2.331,0.094-3.008,0.053-5.432,0.054c-0.193,0.574-0.056,1.565-0.056,2.247c0,1.624,0,1.405,0,3.03
	c-0.563,0.699-0.683,0.904-1.787,0.603c-1.078-1.608-0.066-3.613-0.503-5.88c-2.346,0-2.807,0-5.153,0
	c-0.168-0.054-0.335-0.11-0.503-0.164c-0.19-0.125-0.289-0.387-0.447-0.548c-0.032-0.391,0.006-0.628,0.056-0.987
	c0.249-0.173,0.386-0.454,0.726-0.548c2.383,0,2.882,0,5.264,0c0.24-0.46,0.112-1.486,0.112-2.137c0-1.68,0-1.515,0-3.195
	c0.018,0,0.037,0,0.056,0c0.113-0.419,0.4-0.463,0.67-0.712C30.767,27.798,30.872,27.796,30.95,27.743z"/>
<g>
</g>
<g>
</g>
<g>
</g>
<g>
</g>
<g>
</g>
<g>
</g>
</svg>
