<?xml version="1.0" encoding="utf-8"?>
<!-- Generator: Adobe Illustrator 18.1.1, SVG Export Plug-In . SVG Version: 6.00 Build 0)  -->
<svg version="1.1" id="Layer_1" xmlns="http://www.w3.org/2000/svg" xmlns:xlink="http://www.w3.org/1999/xlink" x="0px" y="0px"
	 width="25.5px" height="53.535px" viewBox="0 0 25.5 53.535" enable-background="new 0 0 25.5 53.535" xml:space="preserve">
<path d="M11,27.731c2.206,0,4,1.778,4,3.964v16.876c0,2.185-1.794,3.963-4,3.963H5c-2.206,0-4-1.778-4-3.963V31.695
	c0-2.186,1.794-3.964,4-3.964H11 M11,26.731H5c-2.761,0-5,2.223-5,4.964v16.876c0,2.741,2.239,4.963,5,4.963h6
	c2.761,0,5-2.222,5-4.963V31.695C16,28.954,13.762,26.731,11,26.731L11,26.731z"/>
<path d="M14.018,23.772c0.541,0,0.982,0.44,0.982,0.982v1c0,0.541-0.44,0.982-0.982,0.982H1.982C1.44,26.736,1,26.295,1,25.754v-1
	c0-0.541,0.44-0.982,0.982-0.982H14.018 M14.018,22.772H1.982C0.887,22.772,0,23.659,0,24.754v1c0,1.095,0.887,1.982,1.982,1.982
	h12.037c1.095,0,1.982-0.887,1.982-1.982v-1C16,23.659,15.113,22.772,14.018,22.772L14.018,22.772z"/>
<path d="M12,13.743v8.919H4v-8.919H12 M13,12.743H3v10.919h10V12.743L13,12.743z"/>
<path d="M10,7.53v4.949H6V7.53H10 M11,6.53H5v6.949h6V6.53L11,6.53z"/>
<g>
	<g>
		<path fill-rule="evenodd" clip-rule="evenodd" d="M15.5,10.541h2V8.556h-2V10.541z M19.5,10.541h2V8.556h-2V10.541z M23.5,8.556
			v1.985h2V8.556H23.5z M17.402,5.941l-1-1.719L14.67,5.215l1,1.719L17.402,5.941z M20.866,3.956l-1-1.72l-1.732,0.993l1,1.72
			L20.866,3.956z M24.33,1.97l-1-1.719l-1.732,0.992l1,1.72L24.33,1.97z M21.672,17.45l1.793,1.033l1.035-1.788l-1.793-1.033
			L21.672,17.45z M18.086,15.387l1.793,1.032l1.035-1.787l-1.793-1.033L18.086,15.387z M14.5,13.322l1.793,1.032l1.035-1.788
			l-1.793-1.032L14.5,13.322z"/>
	</g>
</g>
<g>
</g>
<g>
</g>
<g>
</g>
<g>
</g>
<g>
</g>
<g>
</g>
</svg>
