<?xml version="1.0" encoding="utf-8"?>
<!-- Generator: Adobe Illustrator 18.1.1, SVG Export Plug-In . SVG Version: 6.00 Build 0)  -->
<svg version="1.1" id="Layer_1" xmlns="http://www.w3.org/2000/svg" xmlns:xlink="http://www.w3.org/1999/xlink" x="0px" y="0px"
	 width="12.487px" height="17.951px" viewBox="0 0 12.487 17.951" enable-background="new 0 0 12.487 17.951" xml:space="preserve">
<path fill-rule="evenodd" clip-rule="evenodd" d="M5.701,0.001c3.721-0.05,5.573,1.442,6.461,4.172
	c0.298,0.917,0.483,2.439,0.143,3.471c-1.004,3.05-2.667,5.522-4.319,7.958c-0.341,0.503-0.71,1.005-1.071,1.507
	c-0.201,0.28-0.476,0.528-0.643,0.842c-0.012-0.011-0.024-0.023-0.036-0.035c-0.287-0.28-0.478-0.652-0.714-0.982
	c-0.454-0.635-0.909-1.268-1.357-1.928c-1.524-2.25-3.027-4.533-3.962-7.363C-0.356,5.951,0.343,3.623,1.024,2.56
	c0.698-1.088,1.741-1.804,3.07-2.279C4.499,0.2,4.903,0.118,5.308,0.036C5.446,0.004,5.607,0.058,5.701,0.001z M6.087,2.6
	C5.933,2.684,5.475,2.701,5.282,2.775C4.647,3.02,4.131,3.521,3.868,4.104C3.436,5.061,3.937,6.269,4.589,6.71
	c0.236,0.16,0.452,0.263,0.749,0.376c0.287,0.109,0.817,0.278,1.304,0.176c0.993-0.209,1.692-0.657,2.052-1.429
	C9.394,4.33,8.204,3.034,6.974,2.676C6.713,2.599,6.413,2.598,6.087,2.6z"/>
<g>
</g>
<g>
</g>
<g>
</g>
<g>
</g>
<g>
</g>
<g>
</g>
</svg>
