<?xml version="1.0" encoding="utf-8"?>
<!-- Generator: Adobe Illustrator 18.1.1, SVG Export Plug-In . SVG Version: 6.00 Build 0)  -->
<svg version="1.1" id="Layer_1" xmlns="http://www.w3.org/2000/svg" xmlns:xlink="http://www.w3.org/1999/xlink" x="0px" y="0px"
	 width="34.574px" height="34.781px" viewBox="0 0 34.574 34.781" enable-background="new 0 0 34.574 34.781" xml:space="preserve">
<path fill-rule="evenodd" clip-rule="evenodd" fill="#0C0E0F" d="M20.839,0.001c2.183-0.052,3.141,1.263,4.254,2.386
	c2.825,2.835,5.65,5.672,8.474,8.507c0.704,0.945,1.391,2.549,0.755,4.114c-0.379,0.931-1.001,1.494-1.647,2.145
	c-0.732,0.737-1.464,1.474-2.196,2.212c-2.819,2.842-5.655,5.665-8.474,8.506c-1.407,1.418-2.813,2.836-4.22,4.253
	c-0.722,0.728-1.413,1.668-2.333,2.179c-0.711,0.394-2.106,0.647-3.019,0.345c-1.212-0.399-1.879-1.201-2.676-2.006
	c-0.961-0.968-1.921-1.936-2.882-2.904c-1.258-1.268-2.516-2.535-3.774-3.803c-0.915-0.922-2.153-1.863-2.745-3.077
	c-0.233-0.478-0.218-0.991-0.343-1.521c-0.055-0.234,0.066-0.561,0.103-0.761c0.098-0.534,0.186-0.908,0.446-1.349
	c0.405-0.686,0.904-1.12,1.441-1.659c0.607-0.61,1.179-1.256,1.784-1.867c0.206-0.208,0.453-0.373,0.652-0.588
	c0.982-1.061,2.036-2.053,3.053-3.078C9.529,9.983,11.565,7.932,13.6,5.88c1.669-1.682,3.339-3.366,5.009-5.049
	c0.39-0.284,0.883-0.522,1.372-0.691C20.27,0.041,20.591,0.176,20.839,0.001z M20.873,1.143c-0.169,0.103-0.457,0.037-0.652,0.104
	c-0.311,0.107-0.672,0.298-0.926,0.484C15.03,6.03,10.764,10.33,6.498,14.628c-1.155,1.164-2.31,2.329-3.465,3.492
	c-0.665,0.671-1.452,1.245-1.784,2.248c-0.581,1.756,0.846,2.997,1.612,3.769c2.173,2.178,4.346,4.357,6.518,6.535
	c0.492,0.495,0.984,0.991,1.475,1.487c0.534,0.538,1.019,1.11,1.818,1.383c0.959,0.327,2.045-0.078,2.607-0.485
	c2.012-2.028,4.026-4.057,6.038-6.085c2.802-2.824,5.604-5.648,8.405-8.472c0.755-0.761,1.51-1.522,2.264-2.282
	c0.49-0.494,1.042-0.937,1.304-1.661c0.673-1.857-0.724-3.045-1.544-3.872c-2.367-2.374-4.735-4.749-7.102-7.123
	C23.649,2.557,22.842,1.146,20.873,1.143z M20.05,5.016c0.297,0.011,0.595,0.023,0.892,0.034c1.429,0.39,2.183,1.208,2.539,2.697
	c0.109,0.457,0.077,1.097-0.068,1.521c-0.39,1.138-1.263,1.893-2.47,2.213c-0.53,0.141-1.231,0.001-1.612-0.138
	c-0.455-0.167-0.784-0.327-1.132-0.588c-0.805-0.603-1.49-2.374-0.892-3.734c0.335-0.763,0.962-1.425,1.716-1.763
	C19.262,5.149,19.863,5.131,20.05,5.016z M19.913,6.157c-0.157,0.115-0.41,0.114-0.583,0.207c-0.472,0.256-0.896,0.756-1.064,1.314
	c-0.389,1.297,0.487,2.24,1.338,2.559c0.227,0.084,0.658,0.232,1.029,0.138c0.361-0.091,0.729-0.219,0.995-0.414
	c0.698-0.512,1.086-1.877,0.515-2.802C21.711,6.461,21.076,6.142,19.913,6.157z M14.081,11.102c2.389-0.053,4.269,2.402,3.088,4.737
	c-0.391,0.772-1.144,1.381-2.024,1.66c-0.209,0.066-0.459,0.058-0.652,0.103c-0.471,0.112-1.074-0.115-1.372-0.241
	c-1.02-0.434-1.647-1.108-1.99-2.214c-0.011-0.161-0.023-0.322-0.034-0.484c-0.107-0.494-0.022-1.027,0.138-1.418
	c0.351-0.863,0.945-1.533,1.784-1.902c0.207-0.092,0.477-0.153,0.686-0.207C13.835,11.101,13.99,11.157,14.081,11.102z
	 M26.054,11.102c0.309,0.012,0.618,0.023,0.926,0.035c1.657,0.45,3.268,2.176,2.402,4.426c-0.394,1.023-1.281,1.708-2.402,2.006
	c-0.616,0.163-1.374-0.035-1.784-0.207c-0.319-0.136-0.566-0.227-0.823-0.416c-0.794-0.58-1.628-2.176-1.098-3.63
	c0.302-0.829,0.902-1.517,1.646-1.902c0.275-0.092,0.549-0.184,0.824-0.276C25.859,11.105,25.978,11.148,26.054,11.102z
	 M14.252,12.173c-0.134,0.097-0.486,0.076-0.583,0.104c-0.627,0.186-1.162,0.737-1.407,1.314c-0.516,1.216,0.376,2.349,1.201,2.697
	c0.191,0.08,0.609,0.259,0.892,0.207c1.137-0.208,2.33-1.05,1.99-2.455c-0.061-0.251-0.035-0.424-0.137-0.622
	c-0.257-0.501-0.773-0.954-1.338-1.141C14.664,12.243,14.458,12.208,14.252,12.173z M25.951,12.243
	c-0.156,0.115-0.411,0.113-0.583,0.207c-0.469,0.255-0.891,0.764-1.064,1.314c-0.402,1.282,0.529,2.254,1.373,2.559
	c0.219,0.079,0.631,0.23,0.995,0.139c1.288-0.323,2.373-1.657,1.544-3.181C27.821,12.554,27.108,12.226,25.951,12.243z
	 M7.974,17.187c2.565-0.048,4.317,2.468,3.156,4.737c-0.452,0.884-1.269,1.453-2.333,1.729c-0.238,0.062-0.812,0.046-1.098-0.034
	c-0.183-0.051-0.526-0.062-0.755-0.173c-1.047-0.508-1.646-1.375-1.921-2.559c-0.114-0.488,0.013-1.188,0.137-1.521
	c0.33-0.888,0.973-1.529,1.784-1.937c0.196-0.097,0.484-0.151,0.686-0.207C7.753,17.188,7.89,17.24,7.974,17.187z M20.05,17.187
	c1.755-0.032,2.781,0.857,3.294,2.075c0.166,0.394,0.065,0.61,0.172,1.106c0.105,0.492-0.121,1.191-0.309,1.556
	c-0.341,0.662-0.941,1.191-1.612,1.521c-0.304,0.15-0.71,0.155-1.063,0.242c-0.403,0.1-1.123-0.135-1.372-0.242
	c-0.933-0.4-1.56-1.006-1.921-1.971c-0.102-0.272-0.028-0.387-0.103-0.726c-0.067-0.308-0.041-0.762,0.034-1.038
	c0.277-1.012,0.923-1.855,1.887-2.283C19.279,17.33,19.882,17.294,20.05,17.187z M8.145,18.293
	c-0.165,0.097-0.431,0.036-0.618,0.104c-0.541,0.197-1.049,0.687-1.269,1.21c-0.577,1.371,0.353,2.428,1.269,2.8
	c0.213,0.086,0.64,0.23,0.995,0.139c0.682-0.176,1.354-0.542,1.647-1.21C10.824,19.839,9.694,18.277,8.145,18.293z M20.05,18.293
	c-0.257,0.164-0.611,0.157-0.858,0.311c-0.472,0.296-0.814,0.868-0.96,1.383c-0.354,1.248,0.619,2.113,1.372,2.42
	c0.214,0.088,0.664,0.233,1.029,0.139c1.482-0.384,2.433-1.961,1.407-3.389c-0.321-0.448-0.854-0.716-1.475-0.865
	C20.357,18.243,20.254,18.327,20.05,18.293z M13.943,23.272c0.32,0.012,0.64,0.024,0.96,0.035c1.314,0.364,2.624,1.455,2.573,3.043
	c-0.017,0.549-0.024,1.086-0.24,1.521c-0.478,0.962-1.254,1.574-2.402,1.867c-0.593,0.152-1.316-0.037-1.715-0.207
	c-1.108-0.473-1.662-1.117-1.99-2.386c-0.097-0.376-0.114-1.062,0-1.452c0.288-0.987,0.968-1.791,1.853-2.178
	C13.23,23.407,13.727,23.408,13.943,23.272z M13.84,24.414c-0.191,0.141-0.486,0.15-0.686,0.276
	c-0.403,0.253-0.763,0.722-0.927,1.21c-0.529,1.585,1.108,3.187,2.676,2.662c1.001-0.334,2.021-1.767,1.235-3.078
	C15.687,24.732,15.083,24.396,13.84,24.414z"/>
<g>
</g>
<g>
</g>
<g>
</g>
<g>
</g>
<g>
</g>
<g>
</g>
</svg>
